# Blender 4.3.1
# www.blender.org
mtllib semi_cylinder.mtl
o Cylinder
v 0.000000 -0.500000 -1.000000
v 0.000000 -0.500000 -0.866240
v 0.000000 0.500000 -1.000000
v 0.000000 0.500000 -0.866240
v 0.000000 -0.500000 0.866240
v 0.000000 -0.500000 1.000000
v 0.000000 0.500000 1.000000
v 0.000000 0.500000 0.866240
v -0.168995 -0.500000 0.849595
v -0.195090 -0.500000 0.980785
v -0.168995 0.500000 0.849595
v -0.195090 0.500000 0.980785
v -0.331496 -0.500000 0.800301
v -0.382683 -0.500000 0.923880
v -0.382683 0.500000 0.923880
v -0.331496 0.500000 0.800301
v -0.555570 -0.500000 0.831470
v -0.481257 -0.500000 0.720252
v -0.481257 0.500000 0.720252
v -0.555570 0.500000 0.831470
v -0.707107 -0.500000 0.707107
v -0.612524 -0.500000 0.612524
v -0.707107 0.500000 0.707107
v -0.612524 0.500000 0.612524
v -0.831470 -0.500000 0.555570
v -0.720252 -0.500000 0.481257
v -0.831470 0.500000 0.555570
v -0.720252 0.500000 0.481257
v -0.923880 -0.500000 0.382683
v -0.800301 -0.500000 0.331496
v -0.800301 0.500000 0.331496
v -0.923880 0.500000 0.382683
v -0.980785 -0.500000 0.195090
v -0.849595 -0.500000 0.168995
v -0.849595 0.500000 0.168995
v -0.980785 0.500000 0.195090
v -0.866240 -0.500000 0.000000
v -1.000000 -0.500000 0.000000
v -0.866240 0.500000 0.000000
v -1.000000 0.500000 0.000000
v -0.849595 -0.500000 -0.168995
v -0.980785 -0.500000 -0.195090
v -0.849595 0.500000 -0.168995
v -0.980785 0.500000 -0.195090
v -0.800301 -0.500000 -0.331496
v -0.923880 -0.500000 -0.382683
v -0.800301 0.500000 -0.331496
v -0.923880 0.500000 -0.382683
v -0.831470 -0.500000 -0.555570
v -0.720252 -0.500000 -0.481257
v -0.720252 0.500000 -0.481257
v -0.831470 0.500000 -0.555570
v -0.707107 -0.500000 -0.707107
v -0.612524 -0.500000 -0.612524
v -0.707107 0.500000 -0.707107
v -0.612524 0.500000 -0.612524
v -0.555570 -0.500000 -0.831470
v -0.481257 -0.500000 -0.720252
v -0.555570 0.500000 -0.831470
v -0.481257 0.500000 -0.720252
v -0.382683 -0.500000 -0.923880
v -0.331496 -0.500000 -0.800301
v -0.331496 0.500000 -0.800301
v -0.382683 0.500000 -0.923880
v -0.168995 -0.500000 -0.849595
v -0.195090 -0.500000 -0.980785
v -0.168995 0.500000 -0.849595
v -0.195090 0.500000 -0.980785
vn -0.0980 -0.0000 0.9952
vn -0.1951 -0.0000 0.9808
vn -0.3827 -0.0000 0.9239
vn -0.5556 -0.0000 0.8315
vn -0.7071 -0.0000 0.7071
vn -0.8315 -0.0000 0.5556
vn -0.9239 -0.0000 0.3827
vn -0.9808 -0.0000 0.1951
vn -1.0000 -0.0000 -0.0000
vn -0.9808 -0.0000 -0.1951
vn -0.9239 -0.0000 -0.3827
vn -0.8315 -0.0000 -0.5556
vn -0.7071 -0.0000 -0.7071
vn -0.5556 -0.0000 -0.8315
vn -0.3827 -0.0000 -0.9239
vn -0.0000 1.0000 -0.0000
vn -0.1951 -0.0000 -0.9808
vn -0.0980 -0.0000 -0.9952
vn -0.0000 -1.0000 -0.0000
vn 0.1951 -0.0000 -0.9808
vn 0.0980 -0.0000 -0.9952
vn 0.3827 -0.0000 -0.9239
vn 0.5556 -0.0000 -0.8315
vn 0.7071 -0.0000 -0.7071
vn 0.8315 -0.0000 -0.5556
vn 0.9239 -0.0000 -0.3827
vn 0.9808 -0.0000 -0.1951
vn 1.0000 -0.0000 -0.0000
vn 0.9808 -0.0000 0.1951
vn 0.9239 -0.0000 0.3827
vn 0.8315 -0.0000 0.5556
vn 0.7071 -0.0000 0.7071
vn 0.5556 -0.0000 0.8315
vn 0.3827 -0.0000 0.9239
vn 0.1951 -0.0000 0.9808
vn 0.0980 -0.0000 0.9952
vt 0.500000 0.500000
vt 0.500000 1.000000
vt 0.468750 1.000000
vt 0.468750 0.500000
vt 0.437500 1.000000
vt 0.437500 0.500000
vt 0.406250 1.000000
vt 0.406250 0.500000
vt 0.375000 1.000000
vt 0.375000 0.500000
vt 0.343750 1.000000
vt 0.343750 0.500000
vt 0.312500 1.000000
vt 0.312500 0.500000
vt 0.281250 1.000000
vt 0.281250 0.500000
vt 0.250000 1.000000
vt 0.250000 0.500000
vt 0.218750 1.000000
vt 0.218750 0.500000
vt 0.187500 1.000000
vt 0.187500 0.500000
vt 0.156250 1.000000
vt 0.156250 0.500000
vt 0.125000 1.000000
vt 0.125000 0.500000
vt 0.093750 1.000000
vt 0.093750 0.500000
vt 0.062500 1.000000
vt 0.062500 0.500000
vt 0.158156 0.028269
vt 0.203178 0.014612
vt 0.250000 0.010000
vt 0.250000 0.042102
vt 0.209441 0.046097
vt 0.170441 0.057928
vt 0.116663 0.050447
vt 0.134498 0.077139
vt 0.102994 0.102994
vt 0.077139 0.134498
vt 0.057928 0.170441
vt 0.046097 0.209441
vt 0.042102 0.250000
vt 0.046097 0.290559
vt 0.057928 0.329559
vt 0.077139 0.365502
vt 0.102994 0.397006
vt 0.134498 0.422861
vt 0.170441 0.442072
vt 0.209441 0.453903
vt 0.250000 0.457898
vt 0.250000 0.490000
vt 0.203178 0.485388
vt 0.158156 0.471731
vt 0.116663 0.449553
vt 0.080294 0.419706
vt 0.050447 0.383337
vt 0.028269 0.341844
vt 0.014612 0.296822
vt 0.010000 0.250000
vt 0.014612 0.203178
vt 0.028269 0.158156
vt 0.050447 0.116663
vt 0.080294 0.080294
vt 0.031250 1.000000
vt 0.031250 0.500000
vt 0.000000 1.000000
vt 0.000000 0.500000
vt 0.550447 0.383337
vt 0.580294 0.419706
vt 0.616663 0.449553
vt 0.658156 0.471731
vt 0.703178 0.485388
vt 0.709441 0.453903
vt 0.670441 0.442072
vt 0.634498 0.422861
vt 0.602994 0.397006
vt 0.577139 0.365502
vt 0.557928 0.329559
vt 0.546097 0.290559
vt 0.542102 0.250000
vt 0.546097 0.209441
vt 0.514612 0.203178
vt 0.510000 0.250000
vt 0.514612 0.296822
vt 0.528269 0.341844
vt 0.703178 0.014612
vt 0.658156 0.028269
vt 0.616663 0.050447
vt 0.580294 0.080294
vt 0.550447 0.116663
vt 0.528269 0.158156
vt 0.557928 0.170441
vt 0.577140 0.134498
vt 0.602994 0.102994
vt 0.634498 0.077139
vt 0.670441 0.057928
vt 0.709441 0.046097
vt 0.750000 0.042102
vt 0.750000 0.010000
vt 0.750000 0.490000
vt 0.750000 0.457898
vt 0.437500 0.016720
vt 0.562500 0.016720
vt 0.562500 0.000000
vt 0.437500 0.000000
vt 0.562500 0.233280
vt 0.437500 0.233280
vt 0.437500 0.250000
vt 0.562500 0.250000
s 1
f 6/1/1 7/2/1 12/3/2 10/4/2
f 10/4/2 12/3/2 15/5/3 14/6/3
f 14/6/3 15/5/3 20/7/4 17/8/4
f 17/8/4 20/7/4 23/9/5 21/10/5
f 21/10/5 23/9/5 27/11/6 25/12/6
f 25/12/6 27/11/6 32/13/7 29/14/7
f 29/14/7 32/13/7 36/15/8 33/16/8
f 33/16/8 36/15/8 40/17/9 38/18/9
f 38/18/9 40/17/9 44/19/10 42/20/10
f 42/20/10 44/19/10 48/21/11 46/22/11
f 46/22/11 48/21/11 52/23/12 49/24/12
f 49/24/12 52/23/12 55/25/13 53/26/13
f 53/26/13 55/25/13 59/27/14 57/28/14
f 57/28/14 59/27/14 64/29/15 61/30/15
f 15/31/16 12/32/16 7/33/16 8/34/16 11/35/16 16/36/16
f 20/37/16 15/31/16 16/36/16 19/38/16 24/39/16 28/40/16 31/41/16 35/42/16 39/43/16 43/44/16 47/45/16 51/46/16 56/47/16 60/48/16 63/49/16 67/50/16 4/51/16 3/52/16 68/53/16 64/54/16 59/55/16 55/56/16 52/57/16 48/58/16 44/59/16 40/60/16 36/61/16 32/62/16 27/63/16 23/64/16
f 61/30/15 64/29/15 68/65/17 66/66/17
f 66/66/17 68/65/17 3/67/18 1/68/18
f 49/69/19 53/70/19 57/71/19 61/72/19 66/73/19 65/74/19 62/75/19 58/76/19 54/77/19 50/78/19 45/79/19 41/80/19 37/81/19 34/82/19 33/83/19 38/84/19 42/85/19 46/86/19
f 10/87/19 14/88/19 17/89/19 21/90/19 25/91/19 29/92/19 33/83/19 34/82/19 30/93/19 26/94/19 22/95/19 18/96/19 13/97/19 9/98/19 5/99/19 6/100/19
f 66/73/19 1/101/19 2/102/19 65/74/19
f 11/3/20 8/2/21 5/1/21 9/4/20
f 9/4/20 13/6/22 16/5/22 11/3/20
f 16/5/22 13/6/22 18/8/23 19/7/23
f 24/9/24 19/7/23 18/8/23 22/10/24
f 24/9/24 22/10/24 26/12/25 28/11/25
f 28/11/25 26/12/25 30/14/26 31/13/26
f 34/16/27 35/15/27 31/13/26 30/14/26
f 37/18/28 39/17/28 35/15/27 34/16/27
f 39/17/28 37/18/28 41/20/29 43/19/29
f 43/19/29 41/20/29 45/22/30 47/21/30
f 47/21/30 45/22/30 50/24/31 51/23/31
f 51/23/31 50/24/31 54/26/32 56/25/32
f 56/25/32 54/26/32 58/28/33 60/27/33
f 60/27/33 58/28/33 62/30/34 63/29/34
f 65/66/35 67/65/35 63/29/34 62/30/34
f 2/68/36 4/67/36 67/65/35 65/66/35
f 5/103/28 8/104/28 7/105/28 6/106/28
f 4/107/28 2/108/28 1/109/28 3/110/28
