# Blender 4.3.1
# www.blender.org
mtllib untitled.mtl
o Cylinder
v 0.000000 -0.750000 -1.000000
v 0.000000 0.750000 -1.000000
v 0.024541 -0.750000 -0.999699
v 0.024541 0.750000 -0.999699
v 0.049068 -0.750000 -0.998795
v 0.049068 0.750000 -0.998795
v 0.073565 -0.750000 -0.997290
v 0.073565 0.750000 -0.997290
v 0.098017 -0.750000 -0.995185
v 0.098017 0.750000 -0.995185
v 0.122411 -0.750000 -0.992480
v 0.122411 0.750000 -0.992480
v 0.146730 -0.750000 -0.989177
v 0.146730 0.750000 -0.989177
v 0.170962 -0.750000 -0.985278
v 0.170962 0.750000 -0.985278
v 0.195090 -0.750000 -0.980785
v 0.195090 0.750000 -0.980785
v 0.219101 -0.750000 -0.975702
v 0.219101 0.750000 -0.975702
v 0.242980 -0.750000 -0.970031
v 0.242980 0.750000 -0.970031
v 0.266713 -0.750000 -0.963776
v 0.266713 0.750000 -0.963776
v 0.290285 -0.750000 -0.956940
v 0.290285 0.750000 -0.956940
v 0.313682 -0.750000 -0.949528
v 0.313682 0.750000 -0.949528
v 0.336890 -0.750000 -0.941544
v 0.336890 0.750000 -0.941544
v 0.359895 -0.750000 -0.932993
v 0.359895 0.750000 -0.932993
v 0.382683 -0.750000 -0.923880
v 0.382683 0.750000 -0.923880
v 0.405241 -0.750000 -0.914210
v 0.405241 0.750000 -0.914210
v 0.427555 -0.750000 -0.903989
v 0.427555 0.750000 -0.903989
v 0.449611 -0.750000 -0.893224
v 0.449611 0.750000 -0.893224
v 0.471397 -0.750000 -0.881921
v 0.471397 0.750000 -0.881921
v 0.492898 -0.750000 -0.870087
v 0.492898 0.750000 -0.870087
v 0.514103 -0.750000 -0.857729
v 0.514103 0.750000 -0.857729
v 0.534998 -0.750000 -0.844854
v 0.534998 0.750000 -0.844854
v 0.555570 -0.750000 -0.831470
v 0.555570 0.750000 -0.831470
v 0.575808 -0.750000 -0.817585
v 0.575808 0.750000 -0.817585
v 0.595699 -0.750000 -0.803208
v 0.595699 0.750000 -0.803208
v 0.615232 -0.750000 -0.788346
v 0.615232 0.750000 -0.788346
v 0.634393 -0.750000 -0.773010
v 0.634393 0.750000 -0.773010
v 0.653173 -0.750000 -0.757209
v 0.653173 0.750000 -0.757209
v 0.671559 -0.750000 -0.740951
v 0.671559 0.750000 -0.740951
v 0.689541 -0.750000 -0.724247
v 0.689541 0.750000 -0.724247
v 0.707107 -0.750000 -0.707107
v 0.707107 0.750000 -0.707107
v 0.724247 -0.750000 -0.689541
v 0.724247 0.750000 -0.689541
v 0.740951 -0.750000 -0.671559
v 0.740951 0.750000 -0.671559
v 0.757209 -0.750000 -0.653173
v 0.757209 0.750000 -0.653173
v 0.773010 -0.750000 -0.634393
v 0.773010 0.750000 -0.634393
v 0.788346 -0.750000 -0.615232
v 0.788346 0.750000 -0.615232
v 0.803208 -0.750000 -0.595699
v 0.803208 0.750000 -0.595699
v 0.817585 -0.750000 -0.575808
v 0.817585 0.750000 -0.575808
v 0.831470 -0.750000 -0.555570
v 0.831470 0.750000 -0.555570
v 0.844854 -0.750000 -0.534998
v 0.844854 0.750000 -0.534998
v 0.857729 -0.750000 -0.514103
v 0.857729 0.750000 -0.514103
v 0.870087 -0.750000 -0.492898
v 0.870087 0.750000 -0.492898
v 0.881921 -0.750000 -0.471397
v 0.881921 0.750000 -0.471397
v 0.893224 -0.750000 -0.449611
v 0.893224 0.750000 -0.449611
v 0.903989 -0.750000 -0.427555
v 0.903989 0.750000 -0.427555
v 0.914210 -0.750000 -0.405241
v 0.914210 0.750000 -0.405241
v 0.923880 -0.750000 -0.382683
v 0.923880 0.750000 -0.382683
v 0.932993 -0.750000 -0.359895
v 0.932993 0.750000 -0.359895
v 0.941544 -0.750000 -0.336890
v 0.941544 0.750000 -0.336890
v 0.949528 -0.750000 -0.313682
v 0.949528 0.750000 -0.313682
v 0.956940 -0.750000 -0.290285
v 0.956940 0.750000 -0.290285
v 0.963776 -0.750000 -0.266713
v 0.963776 0.750000 -0.266713
v 0.970031 -0.750000 -0.242980
v 0.970031 0.750000 -0.242980
v 0.975702 -0.750000 -0.219101
v 0.975702 0.750000 -0.219101
v 0.980785 -0.750000 -0.195090
v 0.980785 0.750000 -0.195090
v 0.985278 -0.750000 -0.170962
v 0.985278 0.750000 -0.170962
v 0.989177 -0.750000 -0.146730
v 0.989177 0.750000 -0.146730
v 0.992480 -0.750000 -0.122411
v 0.992480 0.750000 -0.122411
v 0.995185 -0.750000 -0.098017
v 0.995185 0.750000 -0.098017
v 0.997290 -0.750000 -0.073565
v 0.997290 0.750000 -0.073565
v 0.998795 -0.750000 -0.049068
v 0.998795 0.750000 -0.049068
v 0.999699 -0.750000 -0.024541
v 0.999699 0.750000 -0.024541
v 1.000000 -0.750000 0.000000
v 1.000000 0.750000 0.000000
v 0.999699 -0.750000 0.024541
v 0.999699 0.750000 0.024541
v 0.998795 -0.750000 0.049068
v 0.998795 0.750000 0.049068
v 0.997290 -0.750000 0.073565
v 0.997290 0.750000 0.073565
v 0.995185 -0.750000 0.098017
v 0.995185 0.750000 0.098017
v 0.992480 -0.750000 0.122411
v 0.992480 0.750000 0.122411
v 0.989177 -0.750000 0.146730
v 0.989177 0.750000 0.146730
v 0.985278 -0.750000 0.170962
v 0.985278 0.750000 0.170962
v 0.980785 -0.750000 0.195090
v 0.980785 0.750000 0.195090
v 0.975702 -0.750000 0.219101
v 0.975702 0.750000 0.219101
v 0.970031 -0.750000 0.242980
v 0.970031 0.750000 0.242980
v 0.963776 -0.750000 0.266713
v 0.963776 0.750000 0.266713
v 0.956940 -0.750000 0.290285
v 0.956940 0.750000 0.290285
v 0.949528 -0.750000 0.313682
v 0.949528 0.750000 0.313682
v 0.941544 -0.750000 0.336890
v 0.941544 0.750000 0.336890
v 0.932993 -0.750000 0.359895
v 0.932993 0.750000 0.359895
v 0.923880 -0.750000 0.382683
v 0.923880 0.750000 0.382683
v 0.914210 -0.750000 0.405241
v 0.914210 0.750000 0.405241
v 0.903989 -0.750000 0.427555
v 0.903989 0.750000 0.427555
v 0.893224 -0.750000 0.449611
v 0.893224 0.750000 0.449611
v 0.881921 -0.750000 0.471397
v 0.881921 0.750000 0.471397
v 0.870087 -0.750000 0.492898
v 0.870087 0.750000 0.492898
v 0.857729 -0.750000 0.514103
v 0.857729 0.750000 0.514103
v 0.844854 -0.750000 0.534998
v 0.844854 0.750000 0.534998
v 0.831470 -0.750000 0.555570
v 0.831470 0.750000 0.555570
v 0.817585 -0.750000 0.575808
v 0.817585 0.750000 0.575808
v 0.803208 -0.750000 0.595699
v 0.803208 0.750000 0.595699
v 0.788346 -0.750000 0.615232
v 0.788346 0.750000 0.615232
v 0.773010 -0.750000 0.634393
v 0.773010 0.750000 0.634393
v 0.757209 -0.750000 0.653173
v 0.757209 0.750000 0.653173
v 0.740951 -0.750000 0.671559
v 0.740951 0.750000 0.671559
v 0.724247 -0.750000 0.689541
v 0.724247 0.750000 0.689541
v 0.707107 -0.750000 0.707107
v 0.707107 0.750000 0.707107
v 0.689541 -0.750000 0.724247
v 0.689541 0.750000 0.724247
v 0.671559 -0.750000 0.740951
v 0.671559 0.750000 0.740951
v 0.653173 -0.750000 0.757209
v 0.653173 0.750000 0.757209
v 0.634393 -0.750000 0.773010
v 0.634393 0.750000 0.773010
v 0.615232 -0.750000 0.788346
v 0.615232 0.750000 0.788346
v 0.595699 -0.750000 0.803208
v 0.595699 0.750000 0.803208
v 0.575808 -0.750000 0.817585
v 0.575808 0.750000 0.817585
v 0.555570 -0.750000 0.831470
v 0.555570 0.750000 0.831470
v 0.534998 -0.750000 0.844854
v 0.534998 0.750000 0.844854
v 0.514103 -0.750000 0.857729
v 0.514103 0.750000 0.857729
v 0.492898 -0.750000 0.870087
v 0.492898 0.750000 0.870087
v 0.471397 -0.750000 0.881921
v 0.471397 0.750000 0.881921
v 0.449611 -0.750000 0.893224
v 0.449611 0.750000 0.893224
v 0.427555 -0.750000 0.903989
v 0.427555 0.750000 0.903989
v 0.405241 -0.750000 0.914210
v 0.405241 0.750000 0.914210
v 0.382683 -0.750000 0.923880
v 0.382683 0.750000 0.923880
v 0.359895 -0.750000 0.932993
v 0.359895 0.750000 0.932993
v 0.336890 -0.750000 0.941544
v 0.336890 0.750000 0.941544
v 0.313682 -0.750000 0.949528
v 0.313682 0.750000 0.949528
v 0.290285 -0.750000 0.956940
v 0.290285 0.750000 0.956940
v 0.266713 -0.750000 0.963776
v 0.266713 0.750000 0.963776
v 0.242980 -0.750000 0.970031
v 0.242980 0.750000 0.970031
v 0.219101 -0.750000 0.975702
v 0.219101 0.750000 0.975702
v 0.195090 -0.750000 0.980785
v 0.195090 0.750000 0.980785
v 0.170962 -0.750000 0.985278
v 0.170962 0.750000 0.985278
v 0.146730 -0.750000 0.989177
v 0.146730 0.750000 0.989177
v 0.122411 -0.750000 0.992480
v 0.122411 0.750000 0.992480
v 0.098017 -0.750000 0.995185
v 0.098017 0.750000 0.995185
v 0.073565 -0.750000 0.997290
v 0.073565 0.750000 0.997290
v 0.049068 -0.750000 0.998795
v 0.049068 0.750000 0.998795
v 0.024541 -0.750000 0.999699
v 0.024541 0.750000 0.999699
v 0.000000 -0.750000 1.000000
v 0.000000 0.750000 1.000000
vn 0.0123 -0.0000 -0.9999
vn 0.0368 -0.0000 -0.9993
vn 0.0613 -0.0000 -0.9981
vn 0.0858 -0.0000 -0.9963
vn 0.1102 -0.0000 -0.9939
vn 0.1346 -0.0000 -0.9909
vn 0.1589 -0.0000 -0.9873
vn 0.1830 -0.0000 -0.9831
vn 0.2071 -0.0000 -0.9783
vn 0.2311 -0.0000 -0.9729
vn 0.2549 -0.0000 -0.9670
vn 0.2785 -0.0000 -0.9604
vn 0.3020 -0.0000 -0.9533
vn 0.3253 -0.0000 -0.9456
vn 0.3484 -0.0000 -0.9373
vn 0.3713 -0.0000 -0.9285
vn 0.3940 -0.0000 -0.9191
vn 0.4164 -0.0000 -0.9092
vn 0.4386 -0.0000 -0.8987
vn 0.4605 -0.0000 -0.8876
vn 0.4822 -0.0000 -0.8761
vn 0.5035 -0.0000 -0.8640
vn 0.5246 -0.0000 -0.8514
vn 0.5453 -0.0000 -0.8382
vn 0.5657 -0.0000 -0.8246
vn 0.5858 -0.0000 -0.8105
vn 0.6055 -0.0000 -0.7958
vn 0.6249 -0.0000 -0.7807
vn 0.6438 -0.0000 -0.7652
vn 0.6624 -0.0000 -0.7491
vn 0.6806 -0.0000 -0.7327
vn 0.6984 -0.0000 -0.7157
vn 0.7157 -0.0000 -0.6984
vn 0.7327 -0.0000 -0.6806
vn 0.7491 -0.0000 -0.6624
vn 0.7652 -0.0000 -0.6438
vn 0.7807 -0.0000 -0.6249
vn 0.7958 -0.0000 -0.6055
vn 0.8105 -0.0000 -0.5858
vn 0.8246 -0.0000 -0.5657
vn 0.8382 -0.0000 -0.5453
vn 0.8514 -0.0000 -0.5246
vn 0.8640 -0.0000 -0.5035
vn 0.8761 -0.0000 -0.4822
vn 0.8876 -0.0000 -0.4605
vn 0.8987 -0.0000 -0.4386
vn 0.9092 -0.0000 -0.4164
vn 0.9191 -0.0000 -0.3940
vn 0.9285 -0.0000 -0.3713
vn 0.9373 -0.0000 -0.3484
vn 0.9456 -0.0000 -0.3253
vn 0.9533 -0.0000 -0.3020
vn 0.9604 -0.0000 -0.2785
vn 0.9670 -0.0000 -0.2549
vn 0.9729 -0.0000 -0.2311
vn 0.9783 -0.0000 -0.2071
vn 0.9831 -0.0000 -0.1830
vn 0.9873 -0.0000 -0.1589
vn 0.9909 -0.0000 -0.1346
vn 0.9939 -0.0000 -0.1102
vn 0.9963 -0.0000 -0.0858
vn 0.9981 -0.0000 -0.0613
vn 0.9993 -0.0000 -0.0368
vn 0.9999 -0.0000 -0.0123
vn 0.9999 -0.0000 0.0123
vn 0.9993 -0.0000 0.0368
vn 0.9981 -0.0000 0.0613
vn 0.9963 -0.0000 0.0858
vn 0.9939 -0.0000 0.1102
vn 0.9909 -0.0000 0.1346
vn 0.9873 -0.0000 0.1589
vn 0.9831 -0.0000 0.1830
vn 0.9783 -0.0000 0.2071
vn 0.9729 -0.0000 0.2311
vn 0.9670 -0.0000 0.2549
vn 0.9604 -0.0000 0.2785
vn 0.9533 -0.0000 0.3020
vn 0.9456 -0.0000 0.3253
vn 0.9373 -0.0000 0.3484
vn 0.9285 -0.0000 0.3713
vn 0.9191 -0.0000 0.3940
vn 0.9092 -0.0000 0.4164
vn 0.8987 -0.0000 0.4386
vn 0.8876 -0.0000 0.4605
vn 0.8761 -0.0000 0.4822
vn 0.8640 -0.0000 0.5035
vn 0.8514 -0.0000 0.5246
vn 0.8382 -0.0000 0.5453
vn 0.8246 -0.0000 0.5657
vn 0.8105 -0.0000 0.5858
vn 0.7958 -0.0000 0.6055
vn 0.7807 -0.0000 0.6249
vn 0.7652 -0.0000 0.6438
vn 0.7491 -0.0000 0.6624
vn 0.7327 -0.0000 0.6806
vn 0.7157 -0.0000 0.6984
vn 0.6984 -0.0000 0.7157
vn 0.6806 -0.0000 0.7327
vn 0.6624 -0.0000 0.7491
vn 0.6438 -0.0000 0.7652
vn 0.6249 -0.0000 0.7807
vn 0.6055 -0.0000 0.7958
vn 0.5858 -0.0000 0.8105
vn 0.5657 -0.0000 0.8246
vn 0.5453 -0.0000 0.8382
vn 0.5246 -0.0000 0.8514
vn 0.5035 -0.0000 0.8640
vn 0.4822 -0.0000 0.8761
vn 0.4605 -0.0000 0.8876
vn 0.4386 -0.0000 0.8987
vn 0.4164 -0.0000 0.9092
vn 0.3940 -0.0000 0.9191
vn 0.3713 -0.0000 0.9285
vn 0.3484 -0.0000 0.9373
vn 0.3253 -0.0000 0.9456
vn 0.3020 -0.0000 0.9533
vn 0.2785 -0.0000 0.9604
vn 0.2549 -0.0000 0.9670
vn 0.2311 -0.0000 0.9729
vn 0.2071 -0.0000 0.9783
vn 0.1830 -0.0000 0.9831
vn 0.1589 -0.0000 0.9873
vn 0.1346 -0.0000 0.9909
vn 0.1102 -0.0000 0.9939
vn 0.0858 -0.0000 0.9963
vn 0.0613 -0.0000 0.9981
vn 0.0368 -0.0000 0.9993
vn 0.0123 -0.0000 0.9999
vt 1.000000 0.000000
vt 1.000000 1.000000
vt 0.996094 1.000000
vt 0.996094 0.000000
vt 0.992188 1.000000
vt 0.992188 0.000000
vt 0.988281 1.000000
vt 0.988281 0.000000
vt 0.984375 1.000000
vt 0.984375 0.000000
vt 0.980469 1.000000
vt 0.980469 0.000000
vt 0.976562 1.000000
vt 0.976562 0.000000
vt 0.972656 1.000000
vt 0.972656 0.000000
vt 0.968750 1.000000
vt 0.968750 0.000000
vt 0.964844 1.000000
vt 0.964844 0.000000
vt 0.960938 1.000000
vt 0.960938 0.000000
vt 0.957031 1.000000
vt 0.957031 0.000000
vt 0.953125 1.000000
vt 0.953125 0.000000
vt 0.949219 1.000000
vt 0.949219 0.000000
vt 0.945312 1.000000
vt 0.945312 0.000000
vt 0.941406 1.000000
vt 0.941406 0.000000
vt 0.937500 1.000000
vt 0.937500 0.000000
vt 0.933594 1.000000
vt 0.933594 0.000000
vt 0.929688 1.000000
vt 0.929688 0.000000
vt 0.925781 1.000000
vt 0.925781 0.000000
vt 0.921875 1.000000
vt 0.921875 0.000000
vt 0.917969 1.000000
vt 0.917969 0.000000
vt 0.914062 1.000000
vt 0.914062 0.000000
vt 0.910156 1.000000
vt 0.910156 0.000000
vt 0.906250 1.000000
vt 0.906250 0.000000
vt 0.902344 1.000000
vt 0.902344 0.000000
vt 0.898438 1.000000
vt 0.898438 0.000000
vt 0.894531 1.000000
vt 0.894531 0.000000
vt 0.890625 1.000000
vt 0.890625 0.000000
vt 0.886719 1.000000
vt 0.886719 0.000000
vt 0.882812 1.000000
vt 0.882812 0.000000
vt 0.878906 1.000000
vt 0.878906 0.000000
vt 0.875000 1.000000
vt 0.875000 0.000000
vt 0.871094 1.000000
vt 0.871094 0.000000
vt 0.867188 1.000000
vt 0.867188 0.000000
vt 0.863281 1.000000
vt 0.863281 0.000000
vt 0.859375 1.000000
vt 0.859375 0.000000
vt 0.855469 1.000000
vt 0.855469 0.000000
vt 0.851562 1.000000
vt 0.851562 0.000000
vt 0.847656 1.000000
vt 0.847656 0.000000
vt 0.843750 1.000000
vt 0.843750 0.000000
vt 0.839844 1.000000
vt 0.839844 0.000000
vt 0.835938 1.000000
vt 0.835938 0.000000
vt 0.832031 1.000000
vt 0.832031 0.000000
vt 0.828125 1.000000
vt 0.828125 0.000000
vt 0.824219 1.000000
vt 0.824219 0.000000
vt 0.820312 1.000000
vt 0.820312 0.000000
vt 0.816406 1.000000
vt 0.816406 0.000000
vt 0.812500 1.000000
vt 0.812500 0.000000
vt 0.808594 1.000000
vt 0.808594 0.000000
vt 0.804688 1.000000
vt 0.804688 0.000000
vt 0.800781 1.000000
vt 0.800781 0.000000
vt 0.796875 1.000000
vt 0.796875 0.000000
vt 0.792969 1.000000
vt 0.792969 0.000000
vt 0.789062 1.000000
vt 0.789062 0.000000
vt 0.785156 1.000000
vt 0.785156 0.000000
vt 0.781250 1.000000
vt 0.781250 0.000000
vt 0.777344 1.000000
vt 0.777344 0.000000
vt 0.773438 1.000000
vt 0.773438 0.000000
vt 0.769531 1.000000
vt 0.769531 0.000000
vt 0.765625 1.000000
vt 0.765625 0.000000
vt 0.761719 1.000000
vt 0.761719 0.000000
vt 0.757812 1.000000
vt 0.757812 0.000000
vt 0.753906 1.000000
vt 0.753906 0.000000
vt 0.750000 1.000000
vt 0.750000 0.000000
vt 0.746094 1.000000
vt 0.746094 0.000000
vt 0.742188 1.000000
vt 0.742188 0.000000
vt 0.738281 1.000000
vt 0.738281 0.000000
vt 0.734375 1.000000
vt 0.734375 0.000000
vt 0.730469 1.000000
vt 0.730469 0.000000
vt 0.726562 1.000000
vt 0.726562 0.000000
vt 0.722656 1.000000
vt 0.722656 0.000000
vt 0.718750 1.000000
vt 0.718750 0.000000
vt 0.714844 1.000000
vt 0.714844 0.000000
vt 0.710938 1.000000
vt 0.710938 0.000000
vt 0.707031 1.000000
vt 0.707031 0.000000
vt 0.703125 1.000000
vt 0.703125 0.000000
vt 0.699219 1.000000
vt 0.699219 0.000000
vt 0.695312 1.000000
vt 0.695312 0.000000
vt 0.691406 1.000000
vt 0.691406 0.000000
vt 0.687500 1.000000
vt 0.687500 0.000000
vt 0.683594 1.000000
vt 0.683594 0.000000
vt 0.679688 1.000000
vt 0.679688 0.000000
vt 0.675781 1.000000
vt 0.675781 0.000000
vt 0.671875 1.000000
vt 0.671875 0.000000
vt 0.667969 1.000000
vt 0.667969 0.000000
vt 0.664062 1.000000
vt 0.664062 0.000000
vt 0.660156 1.000000
vt 0.660156 0.000000
vt 0.656250 1.000000
vt 0.656250 0.000000
vt 0.652344 1.000000
vt 0.652344 0.000000
vt 0.648438 1.000000
vt 0.648438 0.000000
vt 0.644531 1.000000
vt 0.644531 0.000000
vt 0.640625 1.000000
vt 0.640625 0.000000
vt 0.636719 1.000000
vt 0.636719 0.000000
vt 0.632812 1.000000
vt 0.632812 0.000000
vt 0.628906 1.000000
vt 0.628906 0.000000
vt 0.625000 1.000000
vt 0.625000 0.000000
vt 0.621094 1.000000
vt 0.621094 0.000000
vt 0.617188 1.000000
vt 0.617188 0.000000
vt 0.613281 1.000000
vt 0.613281 0.000000
vt 0.609375 1.000000
vt 0.609375 0.000000
vt 0.605469 1.000000
vt 0.605469 0.000000
vt 0.601562 1.000000
vt 0.601562 0.000000
vt 0.597656 1.000000
vt 0.597656 0.000000
vt 0.593750 1.000000
vt 0.593750 0.000000
vt 0.589844 1.000000
vt 0.589844 0.000000
vt 0.585938 1.000000
vt 0.585938 0.000000
vt 0.582031 1.000000
vt 0.582031 0.000000
vt 0.578125 1.000000
vt 0.578125 0.000000
vt 0.574219 1.000000
vt 0.574219 0.000000
vt 0.570312 1.000000
vt 0.570312 0.000000
vt 0.566406 1.000000
vt 0.566406 0.000000
vt 0.562500 1.000000
vt 0.562500 0.000000
vt 0.558594 1.000000
vt 0.558594 0.000000
vt 0.554688 1.000000
vt 0.554688 0.000000
vt 0.550781 1.000000
vt 0.550781 0.000000
vt 0.546875 1.000000
vt 0.546875 0.000000
vt 0.542969 1.000000
vt 0.542969 0.000000
vt 0.539062 1.000000
vt 0.539062 0.000000
vt 0.535156 1.000000
vt 0.535156 0.000000
vt 0.531250 1.000000
vt 0.531250 0.000000
vt 0.527344 1.000000
vt 0.527344 0.000000
vt 0.523438 1.000000
vt 0.523438 0.000000
vt 0.519531 1.000000
vt 0.519531 0.000000
vt 0.515625 1.000000
vt 0.515625 0.000000
vt 0.511719 1.000000
vt 0.511719 0.000000
vt 0.507812 1.000000
vt 0.507812 0.000000
vt 0.503906 1.000000
vt 0.503906 0.000000
vt 0.500000 1.000000
vt 0.500000 0.000000
s 0
f 1/1/1 2/2/1 4/3/1 3/4/1
f 3/4/2 4/3/2 6/5/2 5/6/2
f 5/6/3 6/5/3 8/7/3 7/8/3
f 7/8/4 8/7/4 10/9/4 9/10/4
f 9/10/5 10/9/5 12/11/5 11/12/5
f 11/12/6 12/11/6 14/13/6 13/14/6
f 13/14/7 14/13/7 16/15/7 15/16/7
f 15/16/8 16/15/8 18/17/8 17/18/8
f 17/18/9 18/17/9 20/19/9 19/20/9
f 19/20/10 20/19/10 22/21/10 21/22/10
f 21/22/11 22/21/11 24/23/11 23/24/11
f 23/24/12 24/23/12 26/25/12 25/26/12
f 25/26/13 26/25/13 28/27/13 27/28/13
f 27/28/14 28/27/14 30/29/14 29/30/14
f 29/30/15 30/29/15 32/31/15 31/32/15
f 31/32/16 32/31/16 34/33/16 33/34/16
f 33/34/17 34/33/17 36/35/17 35/36/17
f 35/36/18 36/35/18 38/37/18 37/38/18
f 37/38/19 38/37/19 40/39/19 39/40/19
f 39/40/20 40/39/20 42/41/20 41/42/20
f 41/42/21 42/41/21 44/43/21 43/44/21
f 43/44/22 44/43/22 46/45/22 45/46/22
f 45/46/23 46/45/23 48/47/23 47/48/23
f 47/48/24 48/47/24 50/49/24 49/50/24
f 49/50/25 50/49/25 52/51/25 51/52/25
f 51/52/26 52/51/26 54/53/26 53/54/26
f 53/54/27 54/53/27 56/55/27 55/56/27
f 55/56/28 56/55/28 58/57/28 57/58/28
f 57/58/29 58/57/29 60/59/29 59/60/29
f 59/60/30 60/59/30 62/61/30 61/62/30
f 61/62/31 62/61/31 64/63/31 63/64/31
f 63/64/32 64/63/32 66/65/32 65/66/32
f 65/66/33 66/65/33 68/67/33 67/68/33
f 67/68/34 68/67/34 70/69/34 69/70/34
f 69/70/35 70/69/35 72/71/35 71/72/35
f 71/72/36 72/71/36 74/73/36 73/74/36
f 73/74/37 74/73/37 76/75/37 75/76/37
f 75/76/38 76/75/38 78/77/38 77/78/38
f 77/78/39 78/77/39 80/79/39 79/80/39
f 79/80/40 80/79/40 82/81/40 81/82/40
f 81/82/41 82/81/41 84/83/41 83/84/41
f 83/84/42 84/83/42 86/85/42 85/86/42
f 85/86/43 86/85/43 88/87/43 87/88/43
f 87/88/44 88/87/44 90/89/44 89/90/44
f 89/90/45 90/89/45 92/91/45 91/92/45
f 91/92/46 92/91/46 94/93/46 93/94/46
f 93/94/47 94/93/47 96/95/47 95/96/47
f 95/96/48 96/95/48 98/97/48 97/98/48
f 97/98/49 98/97/49 100/99/49 99/100/49
f 99/100/50 100/99/50 102/101/50 101/102/50
f 101/102/51 102/101/51 104/103/51 103/104/51
f 103/104/52 104/103/52 106/105/52 105/106/52
f 105/106/53 106/105/53 108/107/53 107/108/53
f 107/108/54 108/107/54 110/109/54 109/110/54
f 109/110/55 110/109/55 112/111/55 111/112/55
f 111/112/56 112/111/56 114/113/56 113/114/56
f 113/114/57 114/113/57 116/115/57 115/116/57
f 115/116/58 116/115/58 118/117/58 117/118/58
f 117/118/59 118/117/59 120/119/59 119/120/59
f 119/120/60 120/119/60 122/121/60 121/122/60
f 121/122/61 122/121/61 124/123/61 123/124/61
f 123/124/62 124/123/62 126/125/62 125/126/62
f 125/126/63 126/125/63 128/127/63 127/128/63
f 127/128/64 128/127/64 130/129/64 129/130/64
f 129/130/65 130/129/65 132/131/65 131/132/65
f 131/132/66 132/131/66 134/133/66 133/134/66
f 133/134/67 134/133/67 136/135/67 135/136/67
f 135/136/68 136/135/68 138/137/68 137/138/68
f 137/138/69 138/137/69 140/139/69 139/140/69
f 139/140/70 140/139/70 142/141/70 141/142/70
f 141/142/71 142/141/71 144/143/71 143/144/71
f 143/144/72 144/143/72 146/145/72 145/146/72
f 145/146/73 146/145/73 148/147/73 147/148/73
f 147/148/74 148/147/74 150/149/74 149/150/74
f 149/150/75 150/149/75 152/151/75 151/152/75
f 151/152/76 152/151/76 154/153/76 153/154/76
f 153/154/77 154/153/77 156/155/77 155/156/77
f 155/156/78 156/155/78 158/157/78 157/158/78
f 157/158/79 158/157/79 160/159/79 159/160/79
f 159/160/80 160/159/80 162/161/80 161/162/80
f 161/162/81 162/161/81 164/163/81 163/164/81
f 163/164/82 164/163/82 166/165/82 165/166/82
f 165/166/83 166/165/83 168/167/83 167/168/83
f 167/168/84 168/167/84 170/169/84 169/170/84
f 169/170/85 170/169/85 172/171/85 171/172/85
f 171/172/86 172/171/86 174/173/86 173/174/86
f 173/174/87 174/173/87 176/175/87 175/176/87
f 175/176/88 176/175/88 178/177/88 177/178/88
f 177/178/89 178/177/89 180/179/89 179/180/89
f 179/180/90 180/179/90 182/181/90 181/182/90
f 181/182/91 182/181/91 184/183/91 183/184/91
f 183/184/92 184/183/92 186/185/92 185/186/92
f 185/186/93 186/185/93 188/187/93 187/188/93
f 187/188/94 188/187/94 190/189/94 189/190/94
f 189/190/95 190/189/95 192/191/95 191/192/95
f 191/192/96 192/191/96 194/193/96 193/194/96
f 193/194/97 194/193/97 196/195/97 195/196/97
f 195/196/98 196/195/98 198/197/98 197/198/98
f 197/198/99 198/197/99 200/199/99 199/200/99
f 199/200/100 200/199/100 202/201/100 201/202/100
f 201/202/101 202/201/101 204/203/101 203/204/101
f 203/204/102 204/203/102 206/205/102 205/206/102
f 205/206/103 206/205/103 208/207/103 207/208/103
f 207/208/104 208/207/104 210/209/104 209/210/104
f 209/210/105 210/209/105 212/211/105 211/212/105
f 211/212/106 212/211/106 214/213/106 213/214/106
f 213/214/107 214/213/107 216/215/107 215/216/107
f 215/216/108 216/215/108 218/217/108 217/218/108
f 217/218/109 218/217/109 220/219/109 219/220/109
f 219/220/110 220/219/110 222/221/110 221/222/110
f 221/222/111 222/221/111 224/223/111 223/224/111
f 223/224/112 224/223/112 226/225/112 225/226/112
f 225/226/113 226/225/113 228/227/113 227/228/113
f 227/228/114 228/227/114 230/229/114 229/230/114
f 229/230/115 230/229/115 232/231/115 231/232/115
f 231/232/116 232/231/116 234/233/116 233/234/116
f 233/234/117 234/233/117 236/235/117 235/236/117
f 235/236/118 236/235/118 238/237/118 237/238/118
f 237/238/119 238/237/119 240/239/119 239/240/119
f 239/240/120 240/239/120 242/241/120 241/242/120
f 241/242/121 242/241/121 244/243/121 243/244/121
f 243/244/122 244/243/122 246/245/122 245/246/122
f 245/246/123 246/245/123 248/247/123 247/248/123
f 247/248/124 248/247/124 250/249/124 249/250/124
f 249/250/125 250/249/125 252/251/125 251/252/125
f 251/252/126 252/251/126 254/253/126 253/254/126
f 253/254/127 254/253/127 256/255/127 255/256/127
f 255/256/128 256/255/128 258/257/128 257/258/128
